<?xml version="1.0" encoding="UTF-8" standalone="no"?>
<!-- Created with Inkscape (http://www.inkscape.org/) -->

<svg
   xmlns:dc="http://purl.org/dc/elements/1.1/"
   xmlns:cc="http://creativecommons.org/ns#"
   xmlns:rdf="http://www.w3.org/1999/02/22-rdf-syntax-ns#"
   xmlns:svg="http://www.w3.org/2000/svg"
   xmlns="http://www.w3.org/2000/svg"
   xmlns:sodipodi="http://sodipodi.sourceforge.net/DTD/sodipodi-0.dtd"
   xmlns:inkscape="http://www.inkscape.org/namespaces/inkscape"
   width="15.172267mm"
   height="16.772467mm"
   viewBox="0 0 15.172267 16.772467"
   version="1.1"
   id="svg8"
   inkscape:version="0.92.1 r15371"
   sodipodi:docname="logo.svg"
   inkscape:export-filename="C:\Users\danpo\Google Диск\Photoshop FIles\logo.png"
   inkscape:export-xdpi="96"
   inkscape:export-ydpi="96">
  <defs
     id="defs2" />
  <sodipodi:namedview
     id="base"
     pagecolor="#ffffff"
     bordercolor="#666666"
     borderopacity="1.0"
     inkscape:pageopacity="0"
     inkscape:pageshadow="2"
     inkscape:zoom="5.6"
     inkscape:cx="-4.5020621"
     inkscape:cy="26.326181"
     inkscape:document-units="mm"
     inkscape:current-layer="layer1"
     showgrid="false"
     inkscape:measure-start="-1.42857,1123.57"
     inkscape:measure-end="116.071,968.214"
     inkscape:window-width="1858"
     inkscape:window-height="1057"
     inkscape:window-x="1912"
     inkscape:window-y="-8"
     inkscape:window-maximized="1" />
  <metadata
     id="metadata5">
    <rdf:RDF>
      <cc:Work
         rdf:about="">
        <dc:format>image/svg+xml</dc:format>
        <dc:type
           rdf:resource="http://purl.org/dc/dcmitype/StillImage" />
        <dc:title></dc:title>
      </cc:Work>
    </rdf:RDF>
  </metadata>
  <g
     inkscape:label="Layer 1"
     inkscape:groupmode="layer"
     id="layer1"
     transform="translate(-0.03855243,0.05325171)">
    <text
       xml:space="preserve"
       style="font-style:normal;font-variant:normal;font-weight:800;font-stretch:normal;font-size:10.58333302px;line-height:1.25;font-family:Bungee;-inkscape-font-specification:'Bungee, Ultra-Bold';font-variant-ligatures:normal;font-variant-caps:normal;font-variant-numeric:normal;font-feature-settings:normal;text-align:start;letter-spacing:0px;word-spacing:0px;writing-mode:lr-tb;text-anchor:start;fill:#34d1bf;fill-opacity:1;stroke:none;stroke-width:0.26458332;"
       x="-0.8504476"
       y="14.368304"
       id="text12"><tspan
         sodipodi:role="line"
         id="tspan14"
         x="-0.8504476"
         y="14.368304"
         style="font-style:normal;font-variant:normal;font-weight:800;font-stretch:normal;font-size:19.75555611px;font-family:Bungee;-inkscape-font-specification:'Bungee, Ultra-Bold';font-variant-ligatures:normal;font-variant-caps:normal;font-variant-numeric:normal;font-feature-settings:normal;text-align:start;writing-mode:lr-tb;text-anchor:start;fill:#34d1bf;fill-opacity:1;">D</tspan></text>
    <path
       style="fill:#ffffff;fill-opacity:1;stroke-width:0.17857143"
       d="M 19.390795,27.601533 V 8.3158189 h 9.708752 c 10.572578,0 11.641864,0.077089 13.964045,1.0067209 1.424796,0.5703857 2.957642,1.9130172 3.575053,3.1314172 1.064622,2.100929 1.055722,1.971736 1.055722,15.326148 0,11.195825 -0.02704,12.330107 -0.319115,13.388455 -0.831873,3.014295 -2.741689,4.650352 -6.281282,5.3809 -1.462334,0.301816 -2.557146,0.333316 -11.658532,0.335441 l -10.044643,0.0023 z m 18.928572,12.406629 c 0.370132,-0.213923 0.788842,-0.684473 1.026785,-1.153909 l 0.401786,-0.79268 -0.0039,-10.363949 c -0.0037,-9.717833 -0.02463,-10.409541 -0.336057,-11.095281 -0.204698,-0.450726 -0.597162,-0.896082 -1.022864,-1.160714 -0.682379,-0.424196 -0.753805,-0.43004 -5.913936,-0.483943 l -5.223214,-0.05456 v 12.787696 12.787695 l 5.223214,-0.05456 c 4.8619,-0.05079 5.266448,-0.07955 5.848215,-0.415791 z"
       id="path4501"
       inkscape:connector-curvature="0"
       transform="matrix(0.26458333,0,0,0.26458333,0.03855243,-0.05325171)" />
    <path
       style="fill:#ffffff;fill-opacity:1;stroke-width:0.17857143"
       d="m 11.423053,54.050949 c -0.306365,-0.1894 -0.647883,-0.604991 -0.758928,-0.923535 -0.146433,-0.420059 -0.201901,-7.444925 -0.201901,-25.570183 0,-21.8421455 0.03374,-25.0621178 0.267805,-25.555366 0.548852,-1.15662118 -0.301904,-1.09124225 15.000052,-1.15272409 9.169432,-0.0368419 14.669969,0.0113146 16.098419,0.14094 3.051593,0.27691819 5.498492,0.90749429 7.723575,1.99039959 3.389736,1.6497184 5.432731,4.2352006 6.473529,8.1924815 0.393863,1.497526 0.400071,1.704422 0.46362,15.446428 0.07662,16.570106 0.0345,17.110993 -1.592277,20.446429 -0.572275,1.173354 -1.048098,1.825277 -2.096439,2.872323 -2.04429,2.041765 -4.262361,3.133334 -8.05257,3.962875 -1.632029,0.357191 -2.286193,0.373622 -17.232143,0.432791 -15.089203,0.05974 -15.551724,0.05161 -16.092742,-0.282859 z m 30.673833,-6.756264 c 3.464409,-0.973486 5.230145,-2.626945 6.077054,-5.690634 0.378253,-1.368328 0.392882,-1.762175 0.460409,-12.395375 0.04548,-7.161064 0.0016,-11.68176 -0.126234,-12.992908 C 48.039572,11.408451 46.20785,9.1606182 41.739743,7.9098296 40.423308,7.5413107 39.969863,7.5249198 29.435438,7.4650623 l -10.9375,-0.062148 V 27.600267 47.797619 l 11.116071,-0.05943 c 10.736977,-0.05741 11.162684,-0.07253 12.482877,-0.4435 z"
       id="path4503"
       inkscape:connector-curvature="0"
       transform="matrix(0.26458333,0,0,0.26458333,0.03855243,-0.05325171)"
       inkscape:export-xdpi="96"
       inkscape:export-ydpi="96" />
    <path
       style="fill:#ffffff;fill-opacity:1;stroke-width:0.17857143"
       d="M 11.423053,54.046249 C 11.116688,53.859435 10.77517,53.445958 10.664125,53.127414 10.517682,52.707328 10.4623,45.676219 10.462501,27.530244 c 2.6e-4,-23.4605126 0.01971,-25.0569056 0.3125,-25.6429965 0.563303,-1.12760659 0.09469,-1.09919472 16.830056,-1.02040673 16.229508,0.0764065 16.05192,0.0668244 19.375024,1.04542203 4.445228,1.3090442 7.599862,4.3342526 8.818944,8.4571272 0.666883,2.255366 0.734661,3.863574 0.733574,17.406031 -8.93e-4,10.549348 -0.05181,13.463077 -0.259332,14.826112 -0.502792,3.302409 -1.481992,5.330524 -3.5922,7.440152 -1.205395,1.205063 -1.748979,1.597705 -3.13327,2.263245 -0.921173,0.44288 -2.296184,0.975837 -3.055582,1.184352 -3.041997,0.83526 -4.27685,0.89081 -19.869277,0.893812 -14.080101,0.0027 -14.664265,-0.01023 -15.199885,-0.336845 z m 30.467742,-6.70165 c 3.664939,-1.00848 5.561018,-2.825071 6.367691,-6.10075 0.269602,-1.094776 0.304711,-2.580621 0.316018,-13.374459 C 48.58579,17.104301 48.553247,15.581515 48.287779,14.448429 47.623917,11.614898 46.36027,9.9367541 44.025109,8.7875277 41.538165,7.5636032 41.436072,7.5544471 29.346152,7.4710739 L 18.497938,7.3962637 V 27.601273 47.80628 l 11.116071,-0.07114 c 9.987504,-0.06392 11.233915,-0.10357 12.276786,-0.390538 z"
       id="path4505"
       inkscape:connector-curvature="0"
       transform="matrix(0.26458333,0,0,0.26458333,0.03855243,-0.05325171)" />
    <path
       style="fill:#ffffff;fill-opacity:1;stroke-width:0.17857143"
       d="M 19.390795,27.601333 V 8.2972725 l 10.401786,0.060538 c 10.003257,0.058218 10.454255,0.075256 11.771264,0.4447002 1.791943,0.5026721 2.684066,0.9724891 3.762993,1.9816973 0.996098,0.931734 1.606457,2.013624 2.059425,3.650423 0.277923,1.004273 0.308104,2.311543 0.308104,13.345474 0,11.043594 -0.03,12.340562 -0.30874,13.347955 -0.623503,2.253402 -1.632957,3.551288 -3.491953,4.489705 -2.321424,1.171852 -2.096175,1.151938 -13.833236,1.223015 l -10.669643,0.06461 z m 18.847448,12.438606 c 0.299132,-0.181199 0.741097,-0.617208 0.982143,-0.968909 l 0.438266,-0.639456 0.05432,-9.92395 c 0.02988,-5.458171 0.0031,-10.352982 -0.05948,-10.877356 -0.156936,-1.31475 -0.988247,-2.24639 -2.244968,-2.515909 -0.505009,-0.108305 -2.904267,-0.191397 -5.526523,-0.191397 h -4.634068 v 12.782005 12.782006 l 5.223214,-0.05879 c 4.697941,-0.05288 5.277909,-0.09192 5.767091,-0.388242 z"
       id="path4507"
       inkscape:connector-curvature="0"
       transform="matrix(0.26458333,0,0,0.26458333,0.03855243,-0.05325171)" />
    <path
       style="fill:#ffffff;fill-opacity:1;stroke-width:0.17857143"
       d="M 11.423053,54.046249 C 11.116688,53.859435 10.77517,53.445958 10.664125,53.127414 10.517682,52.707328 10.4623,45.676219 10.462501,27.530244 c 2.6e-4,-23.4605126 0.01971,-25.0569056 0.3125,-25.6429965 0.56193,-1.12485885 0.104918,-1.09684598 16.738409,-1.02599171 16.525317,0.0703935 16.553121,0.0720909 19.99748,1.22086901 2.185057,0.7287702 3.863514,1.7544214 5.385703,3.2910329 1.452986,1.4667503 2.482625,3.3365005 3.144686,5.7105183 0.39768,1.425999 0.3984,1.455741 0.39978,16.517857 0.0014,15.083327 0.0012,15.08985 -0.398396,16.517857 -1.082095,3.866747 -3.270602,6.630981 -6.486043,8.192317 -1.952002,0.947841 -4.339141,1.606603 -6.827091,1.884026 -1.082532,0.120709 -7.084211,0.191268 -16.233481,0.190847 -13.95204,-7.15e-4 -14.537607,-0.01386 -15.072995,-0.340331 z m 30.495262,-6.766182 c 3.338705,-0.902457 5.01786,-2.320534 6.085575,-5.139378 0.399068,-1.053565 0.40055,-1.09837 0.454621,-13.735584 0.04699,-10.98148 0.01687,-12.846925 -0.224987,-13.936298 C 47.616329,11.688848 46.240184,9.8572905 43.944852,8.760863 41.535208,7.609832 41.177958,7.5785373 29.256867,7.4742111 L 18.497938,7.3800555 V 27.600437 47.820819 l 11.026786,-0.08565 c 10.439655,-0.08109 11.099562,-0.105321 12.393591,-0.4551 z"
       id="path4509"
       inkscape:connector-curvature="0"
       transform="matrix(0.26458333,0,0,0.26458333,0.03855243,-0.05325171)" />
    <path
       style="fill:#ffffff;fill-opacity:1;stroke-width:0.17857143"
       d="M 11.423053,54.046249 C 11.116688,53.859435 10.77517,53.445958 10.664125,53.127414 10.517682,52.707328 10.4623,45.676219 10.462501,27.530244 c 2.6e-4,-23.4605126 0.01971,-25.0569056 0.3125,-25.6429965 0.564014,-1.12902981 0.08469,-1.10013503 16.919366,-1.01993862 16.677842,0.0794493 16.345664,0.059107 19.817876,1.21362452 4.442307,1.4770757 7.26269,4.4544353 8.528086,9.0027426 0.39617,1.423982 0.397457,1.47648 0.400741,16.339286 0.0037,16.897745 0.05048,16.26695 -1.440843,19.441746 -0.662212,1.409745 -1.018907,1.906113 -2.260362,3.145479 -1.220365,1.218309 -1.76824,1.61443 -3.183245,2.30152 -1.952002,0.947841 -4.339141,1.606603 -6.827091,1.884026 -1.082532,0.120709 -7.084211,0.191268 -16.233481,0.190847 -13.95204,-7.15e-4 -14.537607,-0.01386 -15.072995,-0.340331 z m 30.199885,-6.69913 c 1.357091,-0.300371 3.466523,-1.27635 4.225468,-1.955012 0.946628,-0.84649 1.761073,-2.123754 2.156825,-3.382465 0.403339,-1.282848 0.403421,-1.285736 0.403421,-14.229537 0,-12.071005 -0.02224,-13.018514 -0.328903,-14.012483 C 47.181388,10.855829 45.569261,9.2466973 42.515795,8.2140098 41.183363,7.7633789 40.792797,7.7212845 36.712224,7.588512 34.305974,7.510218 29.223384,7.44094 25.417581,7.4345605 L 18.497938,7.4229618 V 27.62658 47.830198 l 10.9375,-0.103204 c 8.934946,-0.08431 11.166362,-0.153861 12.1875,-0.379875 z"
       id="path4511"
       inkscape:connector-curvature="0"
       transform="matrix(0.26458333,0,0,0.26458333,0.03855243,-0.05325171)" />
    <path
       style="fill:#ffffff;fill-opacity:1;stroke-width:0.17857143"
       d="M 11.423053,54.046249 C 11.116688,53.859435 10.77517,53.445958 10.664125,53.127414 10.517682,52.707328 10.4623,45.676219 10.462501,27.530244 c 2.6e-4,-23.4605126 0.01971,-25.0569056 0.3125,-25.6429965 0.563201,-1.12740277 0.09536,-1.09898508 16.830056,-1.02230028 16.477536,0.0755064 16.442761,0.0734872 19.678583,1.14267828 2.490148,0.8228038 3.854984,1.631934 5.519989,3.2724747 1.121075,1.1046043 1.501495,1.636558 2.170948,3.0357187 1.522813,3.1826791 1.441931,2.2207931 1.516575,18.0357141 0.07999,16.947254 0.04197,17.459 -1.539144,20.714286 -0.488861,1.006496 -1.027659,1.721443 -2.168356,2.87725 -1.278152,1.295082 -1.785762,1.668723 -3.214285,2.365954 -1.98252,0.967625 -4.403536,1.643259 -6.785715,1.893692 -0.981405,0.103175 -7.830575,0.179367 -16.25,0.18077 -13.991971,0.0023 -14.575066,-0.01068 -15.110599,-0.337236 z m 25.110599,-6.437412 c 4.628386,-0.138611 4.986627,-0.173739 6.231098,-0.611016 2.530965,-0.889318 3.894449,-2.051107 4.880731,-4.158748 0.486577,-1.03979 0.563352,-1.4392 0.709827,-3.692788 C 48.59195,35.50544 48.4347,15.051818 48.162365,14.050065 47.333375,11.000734 45.187795,8.9195239 41.963617,8.0372884 40.696893,7.6906734 33.716233,7.4488702 24.524724,7.4332221 l -6.026786,-0.01026 V 27.601533 47.780105 l 6.5625,-0.01211 c 3.609375,-0.0067 8.772321,-0.07828 11.473214,-0.159166 z"
       id="path4513"
       inkscape:connector-curvature="0"
       transform="matrix(0.26458333,0,0,0.26458333,0.03855243,-0.05325171)" />
    <path
       style="fill:#ffffff;fill-opacity:1;stroke-width:0.17857143"
       d="m 11.533652,54.16384 c -0.245536,-0.125394 -0.586929,-0.508121 -0.758651,-0.850505 -0.292814,-0.583818 -0.312222,-2.182146 -0.312222,-25.711802 0,-23.5287082 0.01942,-25.128161 0.312222,-25.7142855 0.563201,-1.12740277 0.09536,-1.09898508 16.830056,-1.02230028 16.423947,0.0752608 16.403022,0.0740657 19.642881,1.12194678 2.439614,0.7890546 3.885834,1.6469558 5.551573,3.2932062 1.070034,1.0575157 1.527182,1.6844705 2.172845,2.9799527 1.523303,3.0564091 1.472389,2.3799571 1.469232,19.5200521 -0.0028,14.964291 -0.006,15.10068 -0.392345,16.464864 -0.700834,2.474686 -1.567759,3.987048 -3.261685,5.690059 -2.105533,2.116823 -4.174188,3.147102 -8.128906,4.048541 -1.08125,0.246461 -3.371439,0.293252 -16.964285,0.346593 -12.492021,0.04902 -15.805828,0.01491 -16.160715,-0.166322 z m 23.928572,-6.548687 c 5.645519,-0.140188 5.842476,-0.157254 7.232143,-0.626677 2.395207,-0.809089 3.883516,-1.989671 4.790721,-3.800175 0.921025,-1.838084 0.923993,-1.888198 0.917729,-15.497482 C 48.396424,13.789314 48.426145,14.214701 47.30664,12.005465 46.363927,10.145112 44.005924,8.4928564 41.533652,7.960327 40.385384,7.7129893 31.403922,7.4453409 23.810438,7.4321737 l -5.3125,-0.00921 V 27.601533 47.780105 l 5.580357,-0.01043 c 3.069197,-0.0057 8.191964,-0.07527 11.383929,-0.15453 z"
       id="path4515"
       inkscape:connector-curvature="0"
       transform="matrix(0.26458333,0,0,0.26458333,0.03855243,-0.05325171)" />
    <path
       style="fill:#ffffff;fill-opacity:1;stroke-width:0.17857143"
       d="m 11.533652,54.16384 c -0.245536,-0.125394 -0.586929,-0.508121 -0.758651,-0.850505 -0.292814,-0.583818 -0.312222,-2.182146 -0.312222,-25.711802 0,-23.5287082 0.01942,-25.128161 0.312222,-25.7142855 0.564703,-1.13041025 0.0747,-1.10103994 17.008651,-1.01947169 16.718827,0.080532 16.423956,0.0628718 19.709715,1.18044339 3.519573,1.1970983 6.010998,3.266404 7.478989,6.2118337 1.523303,3.0564091 1.472389,2.3799571 1.469232,19.5200521 -0.0028,15.088702 -0.0028,15.089341 -0.403248,16.507496 -0.693432,2.4557 -1.543073,3.932061 -3.250079,5.647427 -2.086387,2.096605 -4.291946,3.20333 -8.045423,4.037102 -1.174596,0.260916 -3.213864,0.303743 -17.048471,0.358032 -12.492021,0.04902 -15.805828,0.01491 -16.160715,-0.166322 z m 23.303572,-6.557908 c 7.073239,-0.169959 7.354528,-0.210474 9.5967,-1.382213 1.87285,-0.978736 3.062909,-2.513004 3.64403,-4.698016 0.277429,-1.043129 0.306977,-2.3886 0.30187,-13.745598 -0.005,-11.046017 -0.04132,-12.725765 -0.29652,-13.702617 C 47.325836,11.178096 45.574038,9.3081852 42.680097,8.3099807 41.143754,7.7800511 38.567067,7.6377127 27.917581,7.4944862 L 18.497938,7.3678002 V 27.573953 47.780105 l 4.955357,-0.0099 c 2.725447,-0.0054 7.848214,-0.07937 11.383929,-0.164322 z"
       id="path4517"
       inkscape:connector-curvature="0"
       transform="matrix(0.26458333,0,0,0.26458333,0.03855243,-0.05325171)" />
    <path
       style="fill:#ffffff;fill-opacity:1;stroke-width:0.17857143"
       d="M 26.144531 0.8203125 C 24.538488 0.82271729 23.278413 0.84042279 21.771484 0.84960938 C 21.747401 0.84952444 21.717325 0.84969246 21.693359 0.84960938 C 16.548859 0.83177337 13.519311 0.85385037 12.296875 1.0097656 C 12.292096 1.0103746 12.282068 1.0111056 12.277344 1.0117188 C 12.11505 1.0243062 11.753268 1.0350588 11.712891 1.0488281 C 11.594943 1.0890502 11.488003 1.1414401 11.388672 1.2011719 C 11.295748 1.2405345 11.218075 1.2843895 11.15625 1.3320312 C 10.969722 1.4757682 10.891168 1.6549576 10.775391 1.8867188 C 10.482589 2.4728432 10.462891 4.0728546 10.462891 27.601562 C 10.462891 39.36639 10.468312 45.648734 10.509766 49.0625 C 10.530527 50.769275 10.560493 51.757909 10.603516 52.357422 C 10.646522 52.957833 10.702144 53.166459 10.775391 53.3125 C 10.947113 53.654884 11.287667 54.035516 11.533203 54.158203 C 11.605383 54.194269 12.10736 54.225797 12.935547 54.253906 C 12.936696 54.253944 12.93635 54.253868 12.9375 54.253906 C 17.093223 54.394865 29.44862 54.434095 37.015625 54.353516 C 37.840362 54.345113 38.425132 54.331506 39.119141 54.320312 C 39.679354 54.310936 40.370665 54.304236 40.826172 54.292969 C 41.872504 54.267898 42.628223 54.2382 42.962891 54.203125 C 45.96271 53.888732 48.538485 53.027866 50.619141 51.710938 C 50.720901 51.647482 50.818608 51.579836 50.917969 51.513672 C 51.14751 51.359784 51.371439 51.200662 51.587891 51.035156 C 51.690264 50.95635 51.791157 50.876715 51.890625 50.794922 C 52.151286 50.58289 52.400723 50.362176 52.640625 50.132812 C 52.65617 50.117718 52.67204 50.103064 52.6875 50.087891 C 53.124638 49.665508 53.531462 49.218728 53.896484 48.740234 C 54.171594 48.409839 54.417929 48.097859 54.554688 47.871094 C 54.742381 47.559869 54.917588 47.205937 55.083984 46.833984 C 55.734136 45.528912 56.167635 44.077635 56.353516 42.494141 C 56.381832 42.252918 56.406638 41.58622 56.427734 40.648438 C 56.4289 40.601007 56.430492 40.599612 56.431641 40.550781 C 56.453003 39.642513 56.470001 38.469709 56.484375 37.117188 C 56.542687 31.630234 56.538796 23.465962 56.480469 18.107422 C 56.469621 17.110881 56.45834 16.301051 56.443359 15.552734 C 56.422339 14.372733 56.397093 13.489875 56.367188 13.09375 C 56.365103 13.069332 56.363454 12.948222 56.361328 12.927734 C 56.360832 12.922956 56.359874 12.918837 56.359375 12.914062 C 56.358696 12.90712 56.358106 12.87562 56.357422 12.869141 C 56.300226 12.327023 56.210965 11.816356 56.105469 11.318359 C 56.081724 11.206354 56.057491 11.094256 56.03125 10.984375 C 55.992857 10.823608 55.954065 10.662484 55.910156 10.505859 C 55.86263 10.336294 55.807962 10.170669 55.753906 10.005859 C 55.688248 9.805817 55.618554 9.607863 55.542969 9.4140625 C 55.468736 9.2236405 55.392609 9.0343621 55.308594 8.8496094 C 55.245005 8.7097457 55.174793 8.5724995 55.105469 8.4355469 C 55.038265 8.3028761 54.969168 8.1711373 54.896484 8.0410156 C 54.818559 7.9013925 54.738635 7.761941 54.654297 7.625 C 54.575782 7.4976361 54.492374 7.3713875 54.408203 7.2460938 C 54.319174 7.1134876 54.232179 6.9800655 54.136719 6.8496094 C 53.944907 6.5874796 53.743826 6.3290707 53.525391 6.0742188 C 53.519262 6.0670552 53.513968 6.0598913 53.507812 6.0527344 C 53.281831 5.7872513 53.03808 5.5254147 52.783203 5.2675781 C 52.755908 5.2399662 52.73271 5.2111296 52.705078 5.1835938 C 52.617712 5.0965313 52.558247 5.0539055 52.476562 4.9746094 C 52.169751 4.6740198 51.887958 4.4167295 51.634766 4.2050781 C 51.566082 4.1486358 51.488098 4.0819677 51.419922 4.0292969 C 51.298845 3.9346729 51.166517 3.8366828 51.042969 3.7519531 C 50.975037 3.7055549 50.900266 3.6601001 50.830078 3.6152344 C 50.680495 3.5199664 50.522493 3.4177063 50.353516 3.3242188 C 49.376042 2.726726 48.284312 2.2555731 46.931641 1.8359375 C 46.926765 1.834425 46.922851 1.8315893 46.917969 1.8300781 C 46.914057 1.8287935 46.910162 1.8274538 46.90625 1.8261719 C 46.877122 1.8171735 46.851641 1.8077796 46.822266 1.7988281 C 46.761854 1.7804187 46.712817 1.7715021 46.654297 1.7539062 C 45.856533 1.5046568 45.048459 1.3020497 44.199219 1.1523438 C 44.014845 1.1198421 43.529762 1.0900615 42.810547 1.0625 C 42.654311 1.0417763 42.501231 1.0179129 42.337891 1.0039062 C 40.759133 0.86852597 33.304666 0.80959137 26.144531 0.8203125 z M 18.498047 7.4238281 L 21.373047 7.4277344 C 25.536871 7.4360815 33.587477 7.6258903 38.021484 7.796875 C 38.527919 7.8172145 38.727326 7.836038 39.115234 7.8554688 C 39.818582 7.8888506 40.583637 7.9234825 40.833984 7.9511719 C 40.980005 7.9652876 41.098774 7.9782574 41.201172 7.9921875 C 41.37255 8.0197295 41.543274 8.0468998 41.710938 8.0839844 C 41.822035 8.1085575 41.929715 8.1412727 42.039062 8.1699219 C 42.198399 8.2118116 42.356752 8.2550583 42.511719 8.3046875 C 42.672287 8.3565154 42.832266 8.4101894 42.988281 8.4707031 C 43.222792 8.5613633 43.449147 8.6638315 43.671875 8.7714844 C 46.04423 9.9356647 47.752376 12.126358 48.138672 14.716797 C 48.167985 14.933813 48.192841 15.453779 48.214844 16.232422 C 48.315905 20.108748 48.335042 30.307224 48.269531 36.289062 C 48.263697 36.821818 48.255222 37.16658 48.248047 37.625 C 48.237169 38.261657 48.226463 38.963319 48.212891 39.435547 C 48.209448 39.556822 48.204805 39.577386 48.201172 39.683594 C 48.183254 40.218034 48.162789 40.613998 48.140625 40.808594 C 47.677649 43.895974 45.439987 46.211513 42.171875 47.052734 C 41.726911 47.153209 41.252766 47.241484 40.699219 47.304688 C 39.354561 47.423223 36.969853 47.508107 32.695312 47.599609 C 28.373884 47.692113 23.411272 47.770038 21.667969 47.773438 L 18.498047 47.779297 L 18.498047 27.625 L 18.498047 27.601562 L 18.498047 7.4238281 z "
       transform="matrix(0.26458333,0,0,0.26458333,0.03855243,-0.05325171)"
       id="path4519" />
    <path
       style="fill:#ffffff;fill-opacity:1;stroke-width:0.17857143"
       d="m 11.533652,54.158917 c -0.245536,-0.122687 -0.586929,-0.503198 -0.758651,-0.845582 -0.292814,-0.583818 -0.312222,-2.182146 -0.312222,-25.711802 0,-23.5287082 0.01942,-25.128161 0.312222,-25.7142855 0.564834,-1.13067233 0.06655,-1.10096019 17.097937,-1.01953728 16.750977,0.0800823 16.432177,0.061419 19.57942,1.14622758 2.355894,0.8120418 3.810642,1.7081225 5.42058,3.3389117 2.058789,2.0854548 3.163304,4.4677228 3.484966,7.5165405 0.218021,2.066485 0.214121,27.762961 -0.0045,29.625347 -0.772521,6.581048 -5.717014,10.904246 -13.39118,11.708528 -2.643899,0.277092 -30.864963,0.237268 -31.428572,-0.04435 z m 21.160715,-6.561491 c 5.581971,-0.122178 8.20168,-0.246259 9.046978,-0.428503 3.501997,-0.755024 5.944895,-3.18325 6.405013,-6.366543 0.216741,-1.499513 0.215825,-24.551322 -0.0011,-26.051868 C 47.631674,11.196365 44.696981,8.441535 40.90837,7.9571 39.506884,7.7778975 26.84863,7.4356616 21.310438,7.4272391 l -2.8125,-0.00428 V 27.601533 47.780105 l 3.169643,-0.0054 c 1.743303,-0.0029 6.705357,-0.08274 11.026786,-0.177329 z"
       id="path4527"
       inkscape:connector-curvature="0"
       transform="matrix(0.26458333,0,0,0.26458333,0.03855243,-0.05325171)" />
    <path
       style="fill:#ffffff;fill-opacity:1;stroke-width:0.17857143"
       d="M 19.390795,27.591149 V 8.2950502 l 10.491072,0.063981 c 9.3348,0.05693 10.609158,0.098364 11.5625,0.375943 3.37525,0.9827519 5.234655,2.7890798 6.002178,5.8308448 0.199498,0.79063 0.247822,3.384757 0.247822,13.303571 0,12.267434 -0.0018,12.327008 -0.400386,13.594543 -0.939295,2.986686 -3.12147,4.660245 -6.831757,5.239427 -0.68134,0.106359 -5.272282,0.181747 -11.116072,0.182539 l -9.955357,0.0013 z m 18.644489,12.50654 c 0.28572,-0.145208 0.767863,-0.572743 1.071429,-0.950081 l 0.551939,-0.686068 0.05506,-9.849646 c 0.03028,-5.417306 0.0049,-10.267466 -0.05637,-10.778135 -0.131995,-1.099918 -0.657056,-1.949452 -1.517154,-2.454714 -0.583082,-0.342529 -0.964063,-0.370947 -5.758321,-0.429522 l -5.133929,-0.06272 V 27.690819 40.49484 l 5.133929,-0.06657 c 4.076314,-0.05286 5.240946,-0.120957 5.653417,-0.330581 z"
       id="path4529"
       inkscape:connector-curvature="0"
       transform="matrix(0.26458333,0,0,0.26458333,0.03855243,-0.05325171)" />
    <path
       style="fill:#ffffff;fill-opacity:1;stroke-width:0.17857143"
       d="m 28.140795,31.865382 c 0,-6.968692 0.02657,-7.678383 0.279632,-7.468363 0.766219,0.635906 0.791797,0.900651 0.791797,8.195646 v 6.973154 h -0.535715 -0.535714 z"
       id="path4531"
       inkscape:connector-curvature="0"
       transform="matrix(0.26458333,0,0,0.26458333,0.03855243,-0.05325171)" />
    <path
       style="fill:#ffffff;fill-opacity:1;stroke-width:0.17857143"
       d="m 11.533652,54.158917 c -0.245536,-0.122687 -0.586929,-0.503198 -0.758651,-0.845582 -0.292814,-0.583818 -0.312222,-2.182146 -0.312222,-25.711802 0,-23.5287082 0.01942,-25.128161 0.312222,-25.7142855 0.564836,-1.13067538 0.06654,-1.10096338 17.097937,-1.01950846 16.714357,0.0799386 16.638248,0.0755635 19.580398,1.12559886 2.425477,0.8656382 3.706784,1.6533051 5.338379,3.281698 1.233185,1.2307675 1.669427,1.8182275 2.273977,3.0622364 1.442826,2.9689617 1.378675,2.0725777 1.378675,19.2642607 0,14.085484 -0.02475,15.364659 -0.319606,16.517857 -1.469348,5.746718 -6.178661,9.347331 -13.191743,10.086052 -2.611471,0.275079 -30.839438,0.233252 -31.399366,-0.04652 z m 20.59102,-6.559134 c 4.400953,-0.09536 8.539346,-0.257375 9.196428,-0.360044 1.690486,-0.264136 3.594186,-1.210574 4.737322,-2.35519 1.241925,-1.243535 1.869684,-2.555935 2.080089,-4.348657 0.215529,-1.836387 0.224759,-23.260443 0.01089,-25.29268 C 48.059418,14.388099 47.817027,13.30694 47.610759,12.840636 46.67457,10.724224 44.7332,9.0136905 42.476168,8.3165643 41.035906,7.8717127 37.07492,7.6738361 26.131867,7.500062 L 18.497938,7.3788361 V 27.579471 47.780105 l 2.8125,-0.0035 c 1.546875,-0.0019 6.41328,-0.08149 10.814234,-0.176849 z"
       id="path4533"
       inkscape:connector-curvature="0"
       transform="matrix(0.26458333,0,0,0.26458333,0.03855243,-0.05325171)" />
    <path
       style="fill:#ffffff;fill-opacity:1;stroke-width:0.17857143"
       d="m 11.533652,54.158917 c -0.245536,-0.122687 -0.586929,-0.503198 -0.758651,-0.845582 -0.292814,-0.583818 -0.312222,-2.182146 -0.312222,-25.711802 0,-23.5287082 0.01942,-25.128161 0.312222,-25.7142855 0.212677,-0.4257323 0.51149,-0.6929536 0.937223,-0.8381353 0.838566,-0.28596512 27.543494,-0.3194759 30.829205,-0.038686 2.745777,0.2346483 4.743248,0.7721837 7.02748,1.8911502 3.204038,1.5695486 5.651152,4.6230549 6.557227,8.1820996 0.293032,1.151019 0.318231,2.45898 0.318231,16.517857 0,14.085484 -0.02475,15.364659 -0.319606,16.517857 -1.461311,5.715275 -6.111684,9.302468 -13.073252,10.084409 -2.493505,0.280077 -30.948603,0.239556 -31.517857,-0.04488 z m 19.802229,-6.563066 c 4.654618,-0.09977 9.007889,-0.258684 9.673937,-0.353146 3.383706,-0.479895 5.938216,-2.470288 6.873302,-5.355457 0.288236,-0.889338 0.325232,-2.053617 0.391532,-12.321429 0.101716,-15.752471 0.01073,-16.55648 -2.133125,-18.848262 C 44.912999,9.404257 43.665975,8.6266438 42.158933,8.2341087 40.863647,7.8967296 35.646552,7.6637223 25.774724,7.5023521 l -7.276786,-0.11895 V 27.581753 47.780105 l 2.1875,-0.0014 c 1.203125,-7.14e-4 5.995824,-0.08306 10.650443,-0.182825 z"
       id="path4535"
       inkscape:connector-curvature="0"
       transform="matrix(0.26458333,0,0,0.26458333,0.03855243,-0.05325171)" />
    <path
       style="fill:#ffffff;fill-opacity:1;stroke-width:0.17857143"
       d="M 19.390795,27.591149 V 8.2950502 l 10.491072,0.063981 c 9.3348,0.05693 10.609158,0.098364 11.5625,0.375943 2.768755,0.8061623 4.463166,2.1174368 5.420808,4.1950708 0.870322,1.888185 0.953922,3.433556 0.878093,16.231547 -0.06484,10.943248 -0.07558,11.235375 -0.455166,12.376088 -0.981694,2.950166 -2.876541,4.442353 -6.468735,5.09411 -1.023208,0.185649 -3.709877,0.244468 -11.383929,0.249227 l -10.044643,0.0062 z m 18.66217,12.466518 c 0.294305,-0.152193 0.683178,-0.440334 0.864159,-0.640316 0.791291,-0.874366 0.815135,-1.20953 0.8152,-11.458675 3.2e-5,-5.352678 -0.0676,-10.082352 -0.15029,-10.510386 -0.193551,-1.001879 -0.664614,-1.635114 -1.539001,-2.068836 -0.6301,-0.312548 -1.201904,-0.354801 -5.747405,-0.4247 l -5.04769,-0.07762 v 12.815829 12.81583 l 5.134962,-0.08721 c 4.162515,-0.07069 5.236299,-0.139609 5.670065,-0.363918 z"
       id="path4537"
       inkscape:connector-curvature="0"
       transform="matrix(0.26458333,0,0,0.26458333,0.03855243,-0.05325171)" />
    <path
       style="fill:#ffffff;fill-opacity:1;stroke-width:0.17857143"
       d="M 19.390795,27.599158 V 8.2929233 l 10.580357,0.069279 c 11.602057,0.075969 11.29824,0.049227 13.636309,1.2002556 1.46177,0.7196271 2.908209,2.2716331 3.435598,3.6863411 0.215115,0.577039 0.46914,1.732199 0.5645,2.56702 0.232124,2.032101 0.224154,21.962337 -0.0096,24.017857 -0.406173,3.571613 -2.165552,5.586698 -5.796444,6.638902 -0.952795,0.276112 -2.252827,0.317264 -11.741072,0.371654 l -10.669641,0.06116 z m 18.703147,12.378704 c 0.906994,-0.451197 1.346214,-1.136098 1.495653,-2.332263 0.183382,-1.46786 0.176838,-18.29221 -0.0077,-19.722805 -0.179517,-1.391864 -0.61302,-2.106103 -1.547404,-2.549498 -0.549364,-0.26069 -1.427356,-0.323061 -5.717803,-0.406182 l -5.068772,-0.0982 v 12.823057 12.823057 l 5.0986,-0.107205 c 4.419081,-0.09292 5.18507,-0.15022 5.747404,-0.429961 z"
       id="path4539"
       inkscape:connector-curvature="0"
       transform="matrix(0.26458333,0,0,0.26458333,0.03855243,-0.05325171)" />
  </g>
</svg>
